# xmcd
#
# Track frame offsets: 
#        150
#        14740
#        28240
#        41816
#        55062
#        69317
#        83924
#        99261
#        112155
#        124747
#        137992
#        152701
#        168342
#        181849
#        195398
#        211378
#        223346
#        236320
#        250498
#        264223
#        277901
#        291778
#
# Disc length: 4097 seconds
#
# Revision: 0
# Processed by: cddbd v1.5.2PL0 Copyright (c) Steve Scherf et al.
# Submitted via: ExactAudioCopy v0.99pb5
#
DISCID=430fff16
DTITLE=Bessie Smith - Down Hearted Blues
DYEAR=1900
DGENRE=
TTITLE0=I'm down in the dumps
TTITLE1=Blue spirit blues
TTITLE2=Kitchen man
TTITLE3=Foolish man blues
TTITLE4=Thinking blues
TTITLE5=Devil's gonna get you
TTITLE6=Send Me to the 'lectric chair
TTITLE7=I'm wild at that thing
TTITLE8=You've got to give me some
TTITLE9=Standing in the rain blues
TTITLE10=He's got me goin'
TTITLE11=Do your duty
TTITLE12=Dyin' by the hour
TTITLE13=Lock and key
TTITLE14=Gimme a pigfoot
TTITLE15=Take me for a buggy ride
TTITLE16=I used to be your sweet mama
TTITLE17=Trombone cholly
TTITLE18=Alexander's ragtime band
TTITLE19=A good man is hard to find
TTITLE20=Gulf Coast blues
TTITLE21=Down hearted blues
EXTD=
EXTT0=
EXTT1=
EXTT2=
EXTT3=
EXTT4=
EXTT5=
EXTT6=
EXTT7=
EXTT8=
EXTT9=
EXTT10=
EXTT11=
EXTT12=
EXTT13=
EXTT14=
EXTT15=
EXTT16=
EXTT17=
EXTT18=
EXTT19=
EXTT20=
EXTT21=
PLAYORDER=
